<?xml version="1.0" encoding="utf-8"?>
<!-- Generator: Adobe Illustrator 19.0.0, SVG Export Plug-In . SVG Version: 6.00 Build 0)  -->
<svg version="1.1" id="Calque_1" xmlns="http://www.w3.org/2000/svg" xmlns:xlink="http://www.w3.org/1999/xlink" x="0px" y="0px"
	 viewBox="0 0 368.5 368.5" style="enable-background:new 0 0 368.5 368.5;" xml:space="preserve">
<style type="text/css">
	.st0{fill:#373335;}
	.st1{fill:#CF151D;}
	.st2{fill:#FFFFFF;}
	.st3{fill-rule:evenodd;clip-rule:evenodd;fill:#373335;}
	.st4{fill-rule:evenodd;clip-rule:evenodd;fill:#CF151D;}
	.st5{fill-rule:evenodd;clip-rule:evenodd;fill:#FFFFFF;}
</style>
<text transform="matrix(1 0 0 1 568.9293 279.5313)" class="st1" style="font-family:'MagistralBlackC'; font-size:45.9759px;">A</text>
<text transform="matrix(1 0 0 1 610.9966 279.5313)" class="st1" style="font-family:'MagistralBlackC'; font-size:45.9759px;">r</text>
<text transform="matrix(1 0 0 1 636.5279 279.5313)" class="st1" style="font-family:'MagistralBlackC'; font-size:45.9759px;">t</text>
<text transform="matrix(1 0 0 1 662.0338 279.5313)" class="st1" style="font-family:'MagistralBlackC'; font-size:45.9759px;">s</text>
<text transform="matrix(1 0 0 1 711.7681 279.5313)" class="st1" style="font-family:'MagistralBlackC'; font-size:45.9759px;">M</text>
<text transform="matrix(1 0 0 1 767.2867 279.5313)" class="st1" style="font-family:'MagistralBlackC'; font-size:45.9759px;">a</text>
<text transform="matrix(1 0 0 1 801.9078 279.5313)" class="st1" style="font-family:'MagistralBlackC'; font-size:45.9759px;">r</text>
<text transform="matrix(1 0 0 1 827.4703 279.5313)" class="st1" style="font-family:'MagistralBlackC'; font-size:45.9759px;">t</text>
<text transform="matrix(1 0 0 1 852.9507 279.5313)" class="st1" style="font-family:'MagistralBlackC'; font-size:45.9759px;">i</text>
<text transform="matrix(1 0 0 1 871.0015 279.5313)" class="st1" style="font-family:'MagistralBlackC'; font-size:45.9759px;">a</text>
<text transform="matrix(1 0 0 1 905.6226 279.5313)" class="st1" style="font-family:'MagistralBlackC'; font-size:45.9759px;">u</text>
<text transform="matrix(1 0 0 1 941.0689 279.5313)" class="st1" style="font-family:'MagistralBlackC'; font-size:45.9759px;">x</text>
<text transform="matrix(1 0 0 1 993.1636 279.5313)" style="fill:#434343; font-family:'MagistralBlackC'; font-size:45.9759px;">&amp;</text>
<text transform="matrix(1 0 0 1 1055.8638 279.5313)" style="fill:#434343; font-family:'MagistralBlackC'; font-size:45.9759px;">S</text>
<text transform="matrix(1 0 0 1 1094.437 279.5313)" style="fill:#434343; font-family:'MagistralBlackC'; font-size:45.9759px;">p</text>
<text transform="matrix(1 0 0 1 1129.0112 279.5313)" style="fill:#434343; font-family:'MagistralBlackC'; font-size:45.9759px;">o</text>
<text transform="matrix(1 0 0 1 1165.1021 279.5313)" style="fill:#434343; font-family:'MagistralBlackC'; font-size:45.9759px;">r</text>
<text transform="matrix(1 0 0 1 1190.6157 279.5313)" style="fill:#434343; font-family:'MagistralBlackC'; font-size:45.9759px;">t</text>
<text transform="matrix(1 0 0 1 1216.1187 279.5313)" style="fill:#434343; font-family:'MagistralBlackC'; font-size:45.9759px;">s</text>
<text transform="matrix(1 0 0 1 1265.856 279.5313)" style="fill:#434343; font-family:'MagistralBlackC'; font-size:45.9759px;">d</text>
<text transform="matrix(1 0 0 1 1300.1987 279.5313)" style="fill:#434343; font-family:'MagistralBlackC'; font-size:45.9759px;">e</text>
<text transform="matrix(1 0 0 1 1352.3491 279.5313)" style="fill:#434343; font-family:'MagistralBlackC'; font-size:45.9759px;">C</text>
<text transform="matrix(1 0 0 1 1388.3042 279.5313)" style="fill:#434343; font-family:'MagistralBlackC'; font-size:45.9759px;">o</text>
<text transform="matrix(1 0 0 1 1424.3911 279.5313)" style="fill:#434343; font-family:'MagistralBlackC'; font-size:45.9759px;">m</text>
<text transform="matrix(1 0 0 1 1470.231 279.5313)" style="fill:#434343; font-family:'MagistralBlackC'; font-size:45.9759px;">b</text>
<text transform="matrix(1 0 0 1 1504.6245 279.5313)" style="fill:#434343; font-family:'MagistralBlackC'; font-size:45.9759px;">a</text>
<text transform="matrix(1 0 0 1 1539.1636 279.5313)" style="fill:#434343; font-family:'MagistralBlackC'; font-size:45.9759px;">t</text>
<g>
	<path class="st0" d="M568.4,124.4c0-5.3,1.2-9.3,3.7-12.1c1.3-1.5,3.1-2.8,5.3-3.9c2.2-1,4.5-1.5,6.9-1.5H643c2,0,4,0.1,6.1,0.2
		c2.1,0.1,4.2,0.5,6.3,0.9c2.1,0.5,4,1.2,5.9,2.1c1.9,0.9,3.6,2.2,5.2,3.9c1.5,1.5,2.8,3.3,3.6,5.3c0.9,2,1.5,4,2,6
		c0.5,2.1,0.8,4.1,0.9,6.2c0.2,2.1,0.2,4,0.2,5.7c0,3-0.3,5.9-0.9,8.7c-0.6,2.8-2.1,5.5-4.6,8.2c-3,3.3-6.6,5.1-10.8,5.4v0.6
		c2.8,0.2,5.3,0.8,7.4,1.9c2.2,1.1,4,2.3,5.4,3.6c2.9,2.8,4.6,5.9,5.1,9.2c0.5,3.3,0.8,6.7,0.8,10c0,1.8,0,3.6-0.1,5.5
		c-0.1,1.9-0.3,3.8-0.7,5.8c-0.4,2-1.1,3.9-1.9,5.9c-0.9,2-2.1,3.8-3.8,5.6c-1.8,1.9-3.6,3.3-5.4,4.3c-1.9,1-3.8,1.8-5.8,2.2
		c-2,0.5-4.1,0.7-6.3,0.8c-2.2,0.1-4.5,0.2-6.7,0.2h-56.6c-1.2,0-2.5,0-3.9,0c-1.3,0-2.7-0.2-4.2-0.5c-1.4-0.3-2.8-0.8-4.2-1.5
		c-1.3-0.7-2.6-1.8-3.9-3.1c-1.3-1.5-2.3-3.4-3-5.6c-0.7-2.2-1-4.4-1-6.4 M629.2,148.5c1.4,0,3-0.1,4.6-0.4c1.6-0.3,2.9-1.1,3.8-2.5
		c0.4-0.7,0.7-1.5,0.8-2.5c0.2-0.9,0.2-1.7,0.2-2.5c0-1-0.2-1.9-0.5-2.7c-0.3-0.8-0.7-1.4-1.2-1.9c-1.1-1.1-2.4-1.8-3.9-1.9
		c-1.5-0.2-2.8-0.2-3.9-0.2h-19.9c-0.8,0-1.6,0.1-2.3,0.2c-0.7,0.1-1.4,0.5-2.2,1.1c-0.8,0.7-1.3,1.5-1.3,2.2
		c-0.1,0.8-0.1,1.6-0.1,2.4v8.8H629.2z M603.3,180.2c0,1.9,0.1,3.3,0.3,4.3c0.2,1,0.5,1.7,0.9,2.2c0.7,0.8,1.8,1.3,3.2,1.4
		c1.4,0.1,2.5,0.2,3.3,0.2h18.5c3.3,0,5.6-0.3,6.9-0.8c1.3-0.5,2.1-1,2.4-1.4c0.5-0.6,1-1.5,1.4-2.8c0.4-1.2,0.6-2.4,0.6-3.6
		c0-1.9-0.5-3.4-1.4-4.6c-1.1-1.5-2.6-2.4-4.3-2.7c-1.7-0.3-3.3-0.4-4.7-0.4h-27.2V180.2z"/>
</g>
<g>
	<path class="st0" d="M723,107v62.1c0,2.4,0.3,5,0.8,7.9c0.5,2.9,2.1,5.4,4.6,7.4c1.5,1.2,3.5,2.2,5.9,2.9c2.4,0.7,4.9,1,7.3,1
		c2.5,0,4.9-0.3,7.3-1c2.4-0.7,4.4-1.6,5.9-2.9c1.3-1,2.4-2.2,3.1-3.6c0.7-1.3,1.3-2.7,1.6-4.1c0.4-1.4,0.6-2.7,0.6-4
		c0.1-1.3,0.1-2.5,0.1-3.6V107h34.9v64.9c0,2.8-0.1,5.6-0.4,8.3c-0.3,2.8-0.8,5.6-1.6,8.3c-0.8,2.8-2,5.5-3.5,8.1
		c-1.5,2.6-3.4,5.1-5.8,7.5c-2.8,2.8-5.8,5-9.1,6.6c-3.3,1.6-6.8,2.8-10.4,3.6c-3.7,0.8-7.4,1.4-11.3,1.6c-3.9,0.3-7.7,0.4-11.5,0.4
		c-3.9,0-7.8-0.1-11.6-0.4c-3.8-0.3-7.5-0.8-11.2-1.6c-3.7-0.8-7.1-2-10.4-3.6c-3.3-1.6-6.3-3.8-9.1-6.6c-2.4-2.4-4.3-4.9-5.8-7.5
		c-1.5-2.6-2.7-5.3-3.5-8.1c-0.8-2.8-1.4-5.6-1.6-8.3c-0.3-2.8-0.4-5.6-0.4-8.3V107"/>
</g>
<g>
	<path class="st0" d="M810.8,126.4c0-2.2,0.2-4.5,0.5-7.1c0.3-2.6,1.3-4.9,3.1-7c1.3-1.5,3.2-2.8,5.5-3.9c2.3-1,4.8-1.5,7.5-1.5
		h49.3c6.1,0,12,1.1,17.8,3.2c5.8,2.2,10.6,5.5,14.4,9.9c3.8,4.4,6.4,9.9,7.7,16.5c1.3,6.5,2,14.5,2,23.9c0,10.6-0.7,19.2-2.1,25.7
		c-1.4,6.5-3.5,11.6-6.3,15.5c-2.7,3.7-6.6,6.9-11.9,9.6c-5.3,2.7-11.6,4-19.2,4h-50.7c-1.6,0-3.7-0.2-6.1-0.6
		c-2.4-0.4-4.7-1.5-6.7-3.4c-1.4-1.3-2.6-3-3.6-5.1c-0.9-2.1-1.4-4.4-1.4-7 M845.7,180.1c0,1.1,0.1,2.3,0.2,3.4
		c0.1,1.1,0.6,2.1,1.4,2.9c0.9,0.9,2.1,1.5,3.4,1.6c1.3,0.2,2.1,0.2,2.3,0.2h4.8c3.9,0,7.7-0.4,11.4-1.1c3.7-0.7,6.6-2.4,8.8-5.1
		c0.4-0.4,0.9-1.1,1.4-2c0.5-0.9,1-2.2,1.5-3.9c0.5-1.6,0.9-3.8,1.3-6.4c0.4-2.6,0.5-5.8,0.5-9.7c0-6-0.7-10.8-2.1-14.4
		c-1.4-3.6-3.1-6.3-5.2-8.2c-2.4-2.1-5.2-3.3-8.4-3.9c-3.2-0.5-7-0.8-11.2-0.8h-2.6c-0.9,0-1.9,0.1-2.8,0.2c-0.9,0.2-1.8,0.5-2.6,1
		c-1,0.8-1.7,1.8-1.9,3c-0.2,1.2-0.3,2.2-0.3,3V180.1z"/>
</g>
<g>
	<path class="st0" d="M1000.1,106c4.3,0.2,8.6,0.6,12.7,1.3c4.2,0.7,8.1,1.8,11.9,3.3c3.8,1.5,7.1,3.6,10,6.3
		c2.9,2.7,5.2,5.8,6.8,9.4c1.6,3.6,2.9,7.4,3.7,11.3c0.8,3.9,1.3,7.9,1.5,12c0.2,4.1,0.2,7.9,0.2,11.5c0,3.6-0.1,7.4-0.2,11.4
		c-0.2,4-0.6,8-1.5,11.9c-0.8,3.9-2.1,7.7-3.7,11.3c-1.6,3.6-3.9,6.8-6.8,9.6c-2.9,2.7-6.2,4.8-10,6.3c-3.8,1.5-7.7,2.6-11.9,3.3
		c-4.2,0.7-8.4,1.2-12.8,1.3c-4.4,0.2-8.6,0.2-12.6,0.2c-4,0-8.2-0.1-12.6-0.2c-4.4-0.2-8.7-0.6-12.8-1.3c-4.2-0.7-8.1-1.8-11.9-3.3
		c-3.8-1.5-7.1-3.6-10-6.3c-3-2.8-5.3-6-6.9-9.6c-1.6-3.6-2.8-7.4-3.6-11.3c-0.8-3.9-1.3-7.9-1.5-11.9c-0.2-4-0.2-7.8-0.2-11.4
		c0-3.6,0.1-7.4,0.2-11.5c0.2-4.1,0.6-8.1,1.5-12c0.8-3.9,2-7.7,3.6-11.3c1.6-3.6,3.9-6.7,6.9-9.4c2.9-2.7,6.2-4.8,10-6.3
		c3.8-1.5,7.7-2.6,11.9-3.3c4.2-0.7,8.4-1.2,12.7-1.3c4.3-0.2,8.5-0.2,12.7-0.2C991.5,105.7,995.8,105.8,1000.1,106 M964.5,172.6
		c0.5,3.3,1.6,6.4,3.3,9c1.1,1.8,2.4,3.2,3.8,4.2c1.4,1.1,2.9,1.9,4.5,2.4c1.6,0.5,3.3,0.8,5.3,1c1.9,0.2,3.9,0.2,6.1,0.2
		c2.3,0,4.4-0.1,6.3-0.2c1.9-0.2,3.6-0.5,5.2-1c1.5-0.5,3-1.3,4.3-2.4c1.3-1.1,2.6-2.5,3.9-4.2c2-2.9,3.1-5.9,3.5-9.2
		c0.4-3.2,0.5-7,0.5-11.4c0-2.4,0-4.5-0.1-6.3c-0.1-1.9-0.2-3.6-0.4-5.2c-0.2-1.6-0.6-3.1-1.2-4.6c-0.6-1.4-1.4-2.9-2.4-4.5
		c-2.4-3.5-5.1-5.7-8.2-6.6c-3.1-0.9-6.9-1.3-11.4-1.3c-2.3,0-4.3,0.1-6.2,0.2c-1.9,0.2-3.6,0.5-5.3,1.1c-1.7,0.6-3.1,1.4-4.5,2.4
		c-1.3,1-2.6,2.4-3.7,4.2c-2,2.9-3.1,5.9-3.5,9c-0.4,3.1-0.5,7-0.5,11.5C963.8,165.4,964,169.2,964.5,172.6z"/>
</g>
<g>
	<path class="st1" d="M1059.3,215.1v-89.9c0-2.3,0.3-4.6,0.9-7c0.6-2.4,2-4.6,4-6.6c2.3-2.2,4.7-3.5,7.3-3.9
		c2.6-0.5,4.8-0.7,6.8-0.7h80.5v26.3h-57.9c-0.8,0-1.7,0.1-2.5,0.2c-0.9,0.2-1.7,0.6-2.4,1.3c-0.6,0.6-1.1,1.4-1.3,2.5
		c-0.3,1-0.4,2.1-0.4,3.2v7.6h47.1v24.4h-47.1v42.7"/>
</g>
<g>
	<rect x="1166.8" y="107" class="st1" width="34.9" height="108.2"/>
</g>
<g>
	<path class="st1" d="M1322.3,198.9c0,3.6-0.6,6.4-1.9,8.3c-1.3,2-2.4,3.3-3.3,4.2c-3,2.5-6.9,3.7-11.6,3.7h-51.1
		c-4.4,0-9.2-0.7-14.3-2.2c-5.1-1.5-9.4-3.8-12.9-6.9c-3-2.6-5.3-5.7-7-9.3c-1.7-3.7-3-7.5-3.9-11.4c-0.9-4-1.4-8-1.7-12.1
		c-0.3-4.1-0.4-7.9-0.4-11.5c0-4.3,0.2-8.7,0.5-13.2c0.3-4.5,1-8.8,2-13.1c1-4.2,2.6-8.1,4.6-11.7c2.1-3.6,4.8-6.7,8.3-9.3
		c2.5-1.9,5.2-3.3,8-4.2c2.9-1,5.6-1.7,8.2-2.2c2.6-0.5,4.9-0.7,6.9-0.8c2-0.1,3.4-0.2,4.1-0.2h63v25.6h-47.3c-8.7,0-14.9,3-18.7,9
		c-1.9,3-3,6.2-3.3,9.7c-0.4,3.5-0.5,6.7-0.5,9.7s0.2,6.2,0.5,9.7c0.4,3.5,1.5,6.9,3.5,10c2,3,4.2,5,6.8,5.9c2.6,1,5.4,1.5,8.3,1.5
		h10.5c0.9,0,1.9-0.1,3-0.2c1.1-0.2,2-0.6,2.9-1.5c0.8-0.8,1.3-1.8,1.5-2.9c0.2-1.1,0.3-2.3,0.3-3.4V158h34.9"/>
</g>
<g>
	<polyline class="st1" points="1443.7,215.1 1408.8,215.1 1408.8,172.2 1369.6,172.2 1369.6,215.1 1334.6,215.1 1334.6,107 
		1369.6,107 1369.6,145.3 1408.8,145.3 1408.8,107 1443.7,107 	"/>
</g>
<g>
	<polyline class="st1" points="1488.5,215.1 1488.5,133.8 1449.9,133.8 1449.9,107 1562.1,107 1562.1,133.8 1523.5,133.8 
		1523.5,215.1 	"/>
</g>
<g>
	<path class="st1" d="M1559.3,211.5c-2.2,2.3-5,3.4-8.1,3.4c-3.2,0-5.9-1.1-8.1-3.4c-2.2-2.2-3.3-5-3.3-8.2c0-3.2,1.1-5.9,3.4-8.1
		c2.2-2.2,4.9-3.3,8.1-3.3c3.2,0,5.9,1.1,8.1,3.3c2.2,2.2,3.4,4.9,3.4,8.1C1562.6,206.5,1561.5,209.3,1559.3,211.5 M1544.2,196.4
		c-1.9,1.9-2.9,4.3-2.9,7c0,2.8,1,5.1,2.9,7c1.9,1.9,4.2,2.9,7,2.9c2.7,0,5.1-1,7-2.9c1.9-1.9,2.9-4.3,2.9-7c0-2.7-1-5.1-2.9-7
		c-1.9-1.9-4.3-2.9-7-2.9C1548.4,193.5,1546.1,194.4,1544.2,196.4z M1550.9,197c1.6,0,2.7,0.1,3.4,0.5c1.3,0.5,2,1.6,2,3.2
		c0,1.1-0.4,2-1.2,2.5c-0.4,0.3-1,0.5-1.8,0.6c1,0.2,1.7,0.6,2.2,1.2c0.5,0.7,0.7,1.3,0.7,2v0.9c0,0.3,0,0.6,0,0.9
		c0,0.3,0.1,0.6,0.1,0.7l0.1,0.2h-2.1c0,0,0-0.1,0-0.1c0,0,0-0.1,0-0.1l0-0.4v-1c0-1.5-0.4-2.4-1.2-2.9c-0.5-0.3-1.3-0.4-2.5-0.4
		h-1.7v5h-2.2V197H1550.9z M1553.3,199c-0.6-0.3-1.5-0.5-2.7-0.5h-1.9v4.6h2c0.9,0,1.6-0.1,2.1-0.3c0.9-0.3,1.3-1,1.3-2
		C1554.1,199.9,1553.9,199.3,1553.3,199z"/>
</g>
<path class="st2" d="M342.2,185.5c0,87.8-71.2,159-159,159c-87.8,0-159-71.2-159-159c0-87.8,71.2-159,159-159
	C271,26.5,342.2,97.7,342.2,185.5"/>
<path class="st3" d="M313.5,169.1c-12.6-10-13.3,0.6-17.4,3.8c-4.5-3-11.2-3.4-16-4.7c-24.4-8.5-36.1-10.4-38.4-17.3
	c18.5-12.7-2.5-38.8-17.5-40.2c-7.7-25.1-11.6-34.1-39.1-39.4c-22.7-4.3-43.5,4.6-66.8-13.6c-3.5-1.6-4.4,0.5-4.9,1.9
	c-2.3,16.3,24,18.6,49.2,34c-3.4-0.3-45.5,2.2-57.3-10.2c-1.7-0.1-3.9,0.7-2.8,2.7c13,23.7,62.8,11.1,45.5,24.1
	c-4.7,4-11.2,10.3-17.5,12.2c15.8,2.2,28.4,18.4,22.1,31.1c-0.6,1.2-12.6,5-18.1,4.9c-11.4-0.1-21.4-5.5-29.2-8.6
	c-2.3,13.1-13.7,25.2-24.5,31.6c0.8,4.4,3.3,3.3,7.4,4.3c9-0.6,7.9,9.7,8.8,18.3c1.4,12.8,5.5,30.2,13.4,41.4
	c10.4,14.7,28.6,22.2,40.3,35.8c16.3,18.8-0.4,56.6-2.6,59.7c69.3,3.8,86-4.8,107.7-16.4c-0.8-7.9,2-23.4-18.6-37.5
	c-43-25.2-55.1-40-60.1-51.2c-1.8-5.6-4-10-2.4-15.9c4.5-16,19.1-11.5,29.6-8.5c6.8,1.9,34.6,15,39.5,20.8c1.3,1.6,3.7,3.2,1.3,7.1
	c-3.9,3.4-17.3-5.9-24.7,13.1c7.2-4.4,4.2-2.3,6.4-3.7c9.7-2.9,29.3,15.9,47.3,8.3c8.6-3.7,6.6-9.4,13.1-19.2
	c8.2-18.7,4.8-25.8,3.5-29c-2.9,2.3-5.6,7.6-8.8,9.4c-5.9,2.3-18.2-1.7-22.7-3.6c-11.4-6.3-23.2-12.1-34.6-18.4
	c-3.4-1.8-14.8-5.8-16.1-6.3c-5.8-4.8-9.1-2.7-8.9-6.7c0.4-5.1,4.5-8.4,8-10.1c29.5-9.2,60.5,23.1,93.2,25.4
	c0.8,0.1,7.4,12.6,8.6,12.5c1.6-0.1,4.6-14.2,5.1-14.3C319.8,195.3,317.7,176.8,313.5,169.1 M234.3,153.9c-8.2-2.7-21.2-4-28.4-4.4
	c-3.1,0.1-9.9-2.4-20.2,1.7c10.5-10.8,15.5-10.3,21.7-10.3C215,141.6,233.3,153.5,234.3,153.9C234.3,153.9,234.3,153.9,234.3,153.9
	C234.3,154,234.3,154,234.3,153.9z M88.6,241.7c0.6,0.3,1.2,0.7,1.8,1c4.9,0,6.5-1.6,10-2.8c1.2-3-2.9-9-5.6-19.1
	C93.4,228,92.6,239.5,88.6,241.7z M106.1,245.3c-1.8,7.7,3,13.3,0.4,20.8c5.7-0.2,8.6-3.1,10.9-7.3
	C112.2,255.9,111.1,254.4,106.1,245.3z M140,279.6c-1.7-6.8-11-10.3-15.5-14.8c1.6,10.5,7.4,10.1,5.2,21.4
	C134.4,284.7,136.6,282.1,140,279.6z M142.2,302.4c-0.1,0.1-0.1,0.3-0.2,0.4c3.9,3.1,7.7,0.7,11.5,0.4c0.1-7.8-4.6-13-6.6-21
	C143.6,290.9,149.7,297.1,142.2,302.4z M153.9,310.2c-7.4,2.9-6.1,12.2-16.8,12.2c3.4,4.6,7.4,5.3,12.2,4.8
	C151.5,322.6,152.3,318.6,153.9,310.2z"/>
<path class="st4" d="M199.8,144.5c0.6-1.6,15.7-1.2,16.5,3.2c0.2,1-15.7-0.1-16.7-2.2C199.3,144.6,199.8,144.5,199.8,144.5"/>
<path class="st4" d="M73.3,133.7c14.6-4.6,30.2-8.7,40.6-8.3c10.4,0.4,37.5,0.6,35.2,24.9c-0.1,0.9-7.9,3.5-12.1,3.8
	c-14.3,0.9-22.9-6.9-33.8-10.4c-5.8-1.9-25.7-6.6-28.4-9.1C73.5,133.4,73.3,133.7,73.3,133.7"/>
<path class="st5" d="M122,136.1c-4.7,0.7-8.8,3.5-9.8,4.5c10.9,2.1,20.3,13.3,33.2,7.1C146,139.8,131.4,135.7,122,136.1"/>
<path class="st1" d="M200.6,185.7c5.5-2,11.4-5.8,17.3-5.3c6,0.5,11.9,1.9,19.6,6.6c7.7,4.7,23,12.7,23.5,13.3
	c0.1,0.1-6.6,0.5-11.7-1.4c-5-1.9-18.6-9.8-24.2-10.7c-5.6-0.9-11.5-2.1-16.6,1.7C208.4,190,200.6,185.7,200.6,185.7"/>
<path class="st5" d="M301.5,175.9c5.5-0.5,12.3,0.6,9,9c-3.4,8.7-12,9.8-18.5,2.4c0,0,11-2,11.7-5.4
	C304.2,179.7,301.5,175.9,301.5,175.9"/>
<path class="st5" d="M256.4,249.8c8.2,0.7,13.9-2.7,21-11.5c0.4-0.6,0.6,7.5-4.3,11.1c-4.8,3.6-11.4,2.8-15.6,1.4
	C256.7,250.6,256.4,249.8,256.4,249.8"/>
<path class="st1" d="M265.3,307.6c-0.9,0.9-2,1.4-3.4,1.4c-1.3,0-2.4-0.5-3.4-1.4c-0.9-0.9-1.4-2.1-1.4-3.4c0-1.3,0.5-2.4,1.4-3.4
	c0.9-0.9,2-1.4,3.3-1.4c1.3,0,2.4,0.5,3.4,1.4c0.9,0.9,1.4,2,1.4,3.4C266.7,305.5,266.2,306.6,265.3,307.6 M259,301.3
	c-0.8,0.8-1.2,1.8-1.2,2.9c0,1.1,0.4,2.1,1.2,2.9c0.8,0.8,1.8,1.2,2.9,1.2c1.1,0,2.1-0.4,2.9-1.2c0.8-0.8,1.2-1.8,1.2-2.9
	c0-1.1-0.4-2.1-1.2-2.9c-0.8-0.8-1.8-1.2-2.9-1.2C260.8,300.1,259.8,300.5,259,301.3z M261.8,301.6c0.6,0,1.1,0.1,1.4,0.2
	c0.5,0.2,0.8,0.7,0.8,1.3c0,0.5-0.2,0.8-0.5,1c-0.2,0.1-0.4,0.2-0.8,0.3c0.4,0.1,0.7,0.2,0.9,0.5c0.2,0.3,0.3,0.5,0.3,0.8v0.4
	c0,0.1,0,0.2,0,0.4c0,0.1,0,0.2,0,0.3l0,0.1h-0.9c0,0,0,0,0-0.1c0,0,0,0,0-0.1l0-0.2v-0.4c0-0.6-0.2-1-0.5-1.2
	c-0.2-0.1-0.5-0.2-1-0.2h-0.7v2.1H260v-5.2H261.8z M262.8,302.4c-0.2-0.1-0.6-0.2-1.1-0.2h-0.8v1.9h0.8c0.4,0,0.7,0,0.9-0.1
	c0.4-0.1,0.5-0.4,0.5-0.8C263.2,302.8,263.1,302.5,262.8,302.4z"/>
<path class="st0" d="M183.2,350.6c-91,0-165.1-74.1-165.1-165.1c0-91,74.1-165.1,165.1-165.1c91,0,165.1,74.1,165.1,165.1
	C348.3,276.6,274.2,350.6,183.2,350.6z M183.2,32.6c-84.3,0-153,68.6-153,153c0,84.3,68.6,153,153,153c84.3,0,153-68.6,153-153
	C336.1,101.2,267.5,32.6,183.2,32.6z"/>
</svg>
