<svg width="500" height="500" viewBox="0 0 500 500" fill="none" xmlns="http://www.w3.org/2000/svg">
<g id="ufc 1" clip-path="url(#clip0_18_3)">
<path id="Vector" fill-rule="evenodd" clip-rule="evenodd" d="M0 0H500V500H0V0Z" fill="white"/>
<path id="Vector_2" fill-rule="evenodd" clip-rule="evenodd" d="M316.244 86.1218L364.982 134.149L413.725 182.178L413.694 250.067L413.666 317.962L364.886 365.95L316.097 413.933L247.139 413.907L178.176 413.878L129.436 365.854L80.6953 317.819L80.7239 249.933L80.7524 182.038L129.534 134.05L178.321 86.0648L247.282 86.0933L316.244 86.1218V86.1218Z" fill="#6D6E70"/>
<path id="Vector_3" fill-rule="evenodd" clip-rule="evenodd" d="M307.962 105.781L393.749 190.316L393.697 309.811L307.835 394.27L186.459 394.221L100.669 309.689L100.721 190.191L186.583 105.729L307.962 105.781V105.781Z" fill="white"/>
<path id="Vector_4" d="M232.743 5.01672L496.047 264.243M209.514 27.8876L472.821 287.114M186.282 50.7559L449.589 309.983M163.053 73.6268L426.36 332.853M139.825 96.4951L403.132 355.722M116.596 119.366L379.903 378.598M93.3668 142.234L356.674 401.461M70.138 165.103L333.445 424.334M46.9066 187.973L310.216 447.205M23.6777 210.842L286.987 470.074M0.446256 233.713L263.756 492.942M261.681 7.06335L-1.62891 266.29" stroke="#808183" stroke-width="13.9684" stroke-miterlimit="2.613"/>
<path id="Vector_5" d="M283.247 28.3L19.9397 287.529" stroke="white" stroke-width="13.9684" stroke-miterlimit="2.613"/>
<path id="Vector_6" d="M284.909 29.9316L21.5999 289.161" stroke="#808183" stroke-width="13.9684" stroke-miterlimit="2.613"/>
<path id="Vector_7" d="M306.476 51.1683L43.1711 310.398" stroke="white" stroke-width="13.9684" stroke-miterlimit="2.613"/>
<path id="Vector_8" d="M308.138 52.8025L44.8286 312.029M331.367 75.6708L68.0601 334.897" stroke="#808183" stroke-width="13.9684" stroke-miterlimit="2.613"/>
<path id="Vector_9" d="M352.936 96.9075L89.6289 356.137" stroke="white" stroke-width="13.9684" stroke-miterlimit="2.613"/>
<path id="Vector_10" d="M354.596 98.5391L91.2889 357.768" stroke="#808183" stroke-width="13.9684" stroke-miterlimit="2.613"/>
<path id="Vector_11" d="M376.17 119.776L112.858 379.005" stroke="white" stroke-width="13.9684" stroke-miterlimit="2.613"/>
<path id="Vector_12" d="M377.825 121.41L114.518 380.637" stroke="#808183" stroke-width="13.9684" stroke-miterlimit="2.613"/>
<path id="Vector_13" d="M399.399 142.647L136.087 401.876" stroke="white" stroke-width="13.9684" stroke-miterlimit="2.613"/>
<path id="Vector_14" d="M401.054 144.281L137.747 403.508" stroke="#808183" stroke-width="13.9684" stroke-miterlimit="2.613"/>
<path id="Vector_15" d="M422.628 165.515L159.315 424.744" stroke="white" stroke-width="13.9684" stroke-miterlimit="2.613"/>
<path id="Vector_16" d="M424.283 167.149L160.976 426.376" stroke="#808183" stroke-width="13.9684" stroke-miterlimit="2.613"/>
<path id="Vector_17" d="M445.856 188.386L182.547 447.615" stroke="white" stroke-width="13.9684" stroke-miterlimit="2.613"/>
<path id="Vector_18" d="M447.511 190.017L184.207 449.244" stroke="#808183" stroke-width="13.9684" stroke-miterlimit="2.613"/>
<path id="Vector_19" d="M469.085 211.254L205.776 470.483" stroke="white" stroke-width="13.9684" stroke-miterlimit="2.613"/>
<path id="Vector_20" d="M470.743 212.888L207.436 472.115" stroke="#808183" stroke-width="13.9684" stroke-miterlimit="2.613"/>
<path id="Vector_21" d="M492.314 234.122L229.005 493.352" stroke="white" stroke-width="13.9684" stroke-miterlimit="2.613"/>
<path id="Vector_22" d="M493.972 235.757L230.665 494.983" stroke="#808183" stroke-width="13.9684" stroke-miterlimit="2.613"/>
<path id="Vector_23" d="M211.174 26.2534L474.481 285.483M187.942 49.1217L451.252 308.351M164.713 71.9926L428.023 331.222M141.482 94.8609L404.791 354.09M118.253 117.732L381.563 376.961M95.0242 140.6L358.329 399.829M48.5665 186.339L311.871 445.568M71.7953 163.471L335.1 422.698M25.3376 209.21L288.645 468.437M2.1062 232.078L265.413 491.305" stroke="white" stroke-width="13.9684" stroke-miterlimit="2.613"/>
<path id="Vector_24" d="M47.944 330.719H36.2245C34.8731 330.719 33.7992 330.374 33.0106 329.691C32.2195 329.001 31.8252 328 31.8252 326.682C31.8252 325.533 32.1365 324.265 32.759 322.887L36.043 315.617C36.1338 315.425 36.3153 315.324 36.5877 315.324H45.0466C45.2593 315.324 45.3656 315.394 45.3656 315.526C45.3507 315.554 45.3427 315.585 45.3423 315.617L41.5811 323.946C40.9741 325.289 40.668 326.257 40.668 326.838C40.668 327.663 41.1401 328.075 42.0817 328.075H49.2669C51.3369 328.075 53.1994 326.247 54.8569 322.605L57.9956 315.619C58.0864 315.427 58.268 315.326 58.5429 315.326H61.5078C61.7049 315.326 61.8035 315.396 61.8035 315.528C61.8035 315.575 60.7011 318.032 58.4988 322.89C57.5532 325.003 56.1149 326.859 54.3044 328.301C52.2681 329.915 50.1489 330.719 47.944 330.719V330.719ZM81.8236 330.719H67.5076C66.1562 330.719 65.0771 330.394 64.2704 329.736C63.404 329.046 62.9708 328.049 62.9708 326.747C62.9708 325.733 63.2432 324.631 63.7905 323.45L67.3234 315.617C67.4142 315.425 67.5958 315.324 67.8708 315.324H76.5553C76.7551 315.324 76.8536 315.394 76.8536 315.526C76.8533 315.558 76.8452 315.589 76.8303 315.617L72.7967 324.548C72.296 325.658 72.0444 326.446 72.0444 326.929C72.0444 327.689 72.6151 328.073 73.7539 328.073H83.0324C83.2296 328.073 83.3281 328.138 83.3281 328.275C83.3274 328.305 83.3203 328.334 83.3074 328.361L82.371 330.428C82.2828 330.623 82.0986 330.719 81.8236 330.719V330.719ZM104.264 317.972L98.6324 330.431C98.5417 330.623 98.3653 330.719 98.1085 330.719H89.8545C89.6729 330.719 89.5821 330.654 89.5821 330.521C89.5821 330.49 91.468 326.306 95.237 317.972H88.8766C88.6639 317.972 88.5549 317.907 88.5549 317.77C88.5549 317.754 88.8766 317.041 89.5147 315.617C89.6055 315.425 89.7871 315.324 90.062 315.324H112.059C112.258 315.324 112.354 315.394 112.354 315.526C112.354 315.557 112.035 316.281 111.397 317.705C111.307 317.886 111.125 317.975 110.85 317.975H104.264V317.972V317.972ZM119.475 330.719H111.244C111.047 330.719 110.949 330.654 110.949 330.521C110.949 330.49 113.19 325.52 117.675 315.617C117.765 315.425 117.939 315.324 118.199 315.324H126.45C126.632 315.324 126.722 315.394 126.722 315.526C126.722 315.557 124.481 320.527 119.999 330.431C119.908 330.623 119.734 330.719 119.475 330.719V330.719ZM155.204 330.719H147.02C146.807 330.719 146.701 330.654 146.701 330.521C146.701 330.49 147.614 328.454 149.438 324.415L139.568 330.607C139.43 330.682 139.096 330.719 138.564 330.719C137.91 330.719 137.544 330.682 137.469 330.607L132.362 324.415L129.648 330.428C129.558 330.62 129.376 330.716 129.104 330.716H125.957C125.742 330.716 125.638 330.651 125.638 330.519C125.638 330.488 127.879 325.518 132.362 315.614C132.452 315.422 132.634 315.321 132.909 315.321H136.26C136.398 315.321 136.496 315.362 136.556 315.438L142.782 325.357L158.804 315.438C158.911 315.361 159.039 315.32 159.17 315.321H162.156C162.368 315.321 162.475 315.391 162.475 315.523C162.475 315.554 160.234 320.524 155.749 330.428C155.658 330.623 155.476 330.719 155.204 330.719V330.719ZM194.305 330.719H184.09C183.953 330.719 183.862 330.682 183.818 330.607L177.317 320.727L166.065 328.073H178.147C178.347 328.073 178.443 328.138 178.443 328.275C178.443 328.306 178.124 329.02 177.486 330.428C177.411 330.62 177.237 330.716 176.962 330.716H159.453C159.209 330.716 159.087 330.662 159.087 330.54C159.087 330.449 159.17 330.353 159.339 330.247L182.363 315.438C182.476 315.359 182.611 315.318 182.749 315.321H185.167C185.304 315.321 185.4 315.362 185.462 315.438C191.724 325.357 194.855 330.337 194.855 330.384C194.853 330.607 194.668 330.719 194.305 330.719V330.719ZM220.665 317.972L215.034 330.431C214.94 330.623 214.766 330.719 214.507 330.719H206.256C206.074 330.719 205.983 330.654 205.983 330.521C205.983 330.49 207.869 326.306 211.638 317.972H205.278C205.065 317.972 204.959 317.907 204.959 317.77C204.959 317.754 205.278 317.041 205.916 315.617C206.007 315.425 206.188 315.324 206.463 315.324H228.462C228.66 315.324 228.758 315.394 228.758 315.526C228.758 315.557 228.439 316.281 227.801 317.705C227.71 317.886 227.529 317.975 227.254 317.975H220.665V317.972V317.972ZM250.488 323.671H239.5C239.318 323.671 239.227 323.606 239.227 323.474C239.227 323.443 239.546 322.714 240.187 321.295C240.278 321.098 240.452 321.002 240.711 321.002H251.696C251.894 321.002 251.995 321.077 251.995 321.23C251.995 321.24 251.665 321.959 251.014 323.383C250.936 323.575 250.76 323.671 250.488 323.671V323.671ZM247.274 330.719H231.84C230.457 330.719 229.362 330.384 228.556 329.71C227.705 328.976 227.28 327.946 227.28 326.615C227.28 325.489 227.578 324.293 228.169 323.022C229.158 320.869 230.569 319.08 232.408 317.658C234.413 316.102 236.55 315.324 238.812 315.324H254.246C254.443 315.324 254.545 315.394 254.545 315.526C254.543 315.558 254.534 315.589 254.519 315.617L253.587 317.705C253.512 317.886 253.328 317.975 253.04 317.975H242.667C241.585 317.975 240.706 318.33 240.021 319.028C239.549 319.495 239.048 320.314 238.517 321.5L237.422 323.946C236.828 325.232 236.532 326.174 236.532 326.773C236.532 327.64 237.056 328.075 238.104 328.075H248.477C248.69 328.075 248.796 328.14 248.796 328.278C248.781 328.304 248.773 328.333 248.773 328.363L247.839 330.431C247.751 330.623 247.562 330.719 247.274 330.719V330.719ZM293.695 323.671H282.707C282.526 323.671 282.435 323.606 282.435 323.474C282.435 323.443 282.754 322.714 283.392 321.295C283.483 321.098 283.662 321.002 283.913 321.002H294.901C295.083 321.002 295.174 321.077 295.174 321.23C295.174 321.24 294.855 321.959 294.217 323.383C294.141 323.575 293.967 323.671 293.695 323.671ZM277.143 330.719H268.459C268.261 330.719 268.16 330.654 268.16 330.521C268.16 330.475 269.346 327.842 271.717 322.618C272.636 320.59 274.066 318.836 275.867 317.526C277.828 316.058 279.88 315.321 282.022 315.321H297.454C297.651 315.321 297.752 315.391 297.752 315.523C297.751 315.555 297.742 315.586 297.726 315.614L296.795 317.702C296.704 317.884 296.523 317.972 296.248 317.972H285.877C284.793 317.972 283.911 318.327 283.229 319.025C282.756 319.492 282.256 320.312 281.729 321.497L277.69 330.428C277.6 330.623 277.415 330.719 277.143 330.719V330.719ZM301.882 330.719H293.654C293.456 330.719 293.361 330.654 293.361 330.521C293.361 330.49 295.599 325.52 300.084 315.617C300.175 315.425 300.349 315.324 300.605 315.324H308.859C309.041 315.324 309.132 315.394 309.132 315.526C309.132 315.557 306.893 320.527 302.408 330.431C302.317 330.623 302.141 330.719 301.882 330.719V330.719ZM332.208 330.719H315.975C314.592 330.719 313.497 330.384 312.691 329.71C311.84 328.976 311.414 327.946 311.414 326.615C311.414 325.489 311.713 324.293 312.307 323.022C313.311 320.869 314.724 319.08 316.548 317.658C318.553 316.102 320.688 315.324 322.952 315.324H337.543C337.756 315.324 337.862 315.394 337.862 315.526C337.862 315.557 337.852 315.586 337.842 315.617L336.905 317.705C336.814 317.886 336.633 317.975 336.358 317.975H326.807C325.728 317.975 324.846 318.33 324.161 319.028C323.689 319.495 323.188 320.314 322.657 321.5L321.562 323.946C320.968 325.232 320.67 326.174 320.67 326.773C320.67 327.64 321.196 328.075 322.244 328.075H324.797L328.055 320.846C328.145 320.654 328.327 320.558 328.602 320.558H336.783C337.001 320.558 337.102 320.623 337.102 320.76C337.102 320.786 335.652 324.013 332.75 330.433C332.664 330.623 332.483 330.719 332.208 330.719V330.719ZM360.713 330.719H352.479C352.298 330.719 352.207 330.654 352.207 330.521C352.207 330.49 353.234 328.205 355.289 323.671H348.332L345.276 330.428C345.206 330.62 345.027 330.716 344.754 330.716H336.526C336.329 330.716 336.228 330.651 336.228 330.519C336.228 330.488 338.472 325.518 342.957 315.614C343.048 315.422 343.221 315.321 343.478 315.321H351.732C351.914 315.321 352.005 315.391 352.005 315.523C352.005 315.554 351.185 317.383 349.543 320.999H356.474L358.91 315.614C359 315.422 359.182 315.321 359.457 315.321H367.69C367.872 315.321 367.963 315.391 367.963 315.523C367.963 315.554 365.729 320.524 361.26 330.428C361.166 330.623 360.985 330.719 360.713 330.719V330.719ZM384.494 317.972L378.865 330.431C378.774 330.623 378.595 330.719 378.338 330.719H370.084C369.903 330.719 369.812 330.654 369.812 330.521C369.812 330.49 371.698 326.306 375.467 317.972H369.109C368.896 317.972 368.79 317.907 368.79 317.77C368.79 317.754 369.109 317.041 369.747 315.617C369.838 315.425 370.02 315.324 370.295 315.324H392.291C392.488 315.324 392.584 315.394 392.584 315.526C392.584 315.557 392.265 316.281 391.627 317.705C391.542 317.886 391.355 317.975 391.08 317.975H384.494V317.972V317.972ZM399.707 330.719H391.474C391.277 330.719 391.181 330.654 391.181 330.521C391.181 330.49 393.42 325.52 397.905 315.617C397.995 315.425 398.174 315.324 398.426 315.324H406.68C406.862 315.324 406.952 315.394 406.952 315.526C406.952 315.557 404.714 320.527 400.229 330.431C400.138 330.623 399.959 330.719 399.707 330.719V330.719ZM433.265 330.719H429.613C429.263 330.719 428.812 330.607 428.251 330.384L412.623 324.208L409.832 330.428C409.741 330.62 409.559 330.716 409.289 330.716H406.138C405.93 330.716 405.819 330.651 405.819 330.519C405.819 330.488 405.829 330.459 405.845 330.428L412.547 315.614C412.638 315.422 412.82 315.321 413.095 315.321H416.607C416.895 315.321 417.281 315.422 417.766 315.614L433.691 321.946L436.554 315.614C436.63 315.422 436.814 315.321 437.102 315.321H440.248C440.445 315.321 440.547 315.391 440.547 315.523C440.545 315.555 440.536 315.586 440.521 315.614L433.818 330.428C433.737 330.623 433.556 330.719 433.265 330.719V330.719ZM462.52 330.719H446.287C444.904 330.719 443.815 330.384 443.008 329.71C442.157 328.976 441.732 327.946 441.732 326.615C441.732 325.489 442.025 324.293 442.619 323.022C443.623 320.869 445.037 319.08 446.86 317.658C448.865 316.102 451.005 315.324 453.265 315.324H467.856C468.068 315.324 468.175 315.394 468.175 315.526C468.175 315.557 468.168 315.589 468.154 315.617L467.218 317.705C467.127 317.886 466.945 317.975 466.67 317.975H457.119C456.04 317.975 455.158 318.33 454.474 319.028C454.001 319.495 453.501 320.314 452.969 321.5L451.874 323.946C451.28 325.232 450.982 326.174 450.982 326.773C450.982 327.64 451.509 328.075 452.557 328.075H455.109L458.367 320.846C458.458 320.654 458.639 320.558 458.914 320.558H467.101C467.314 320.558 467.42 320.623 467.42 320.76C467.42 320.786 465.965 324.013 463.062 330.433C462.974 330.623 462.792 330.719 462.52 330.719V330.719Z" stroke="black" stroke-width="35.3815" stroke-miterlimit="2.613" stroke-linejoin="round"/>
<path id="Vector_25" fill-rule="evenodd" clip-rule="evenodd" d="M47.944 330.719H36.2245C34.8731 330.719 33.7992 330.379 33.0106 329.691C32.2195 329.001 31.8252 328 31.8252 326.682C31.8252 325.533 32.1365 324.265 32.759 322.887L36.043 315.617C36.1338 315.425 36.3153 315.324 36.5877 315.324H45.0466C45.2593 315.324 45.3656 315.394 45.3656 315.526C45.3507 315.554 45.3427 315.585 45.3423 315.617L41.5811 323.946C40.9741 325.289 40.668 326.257 40.668 326.838C40.668 327.663 41.1401 328.075 42.0817 328.075H49.2669C51.3369 328.075 53.1994 326.247 54.8569 322.605L57.9956 315.619C58.0864 315.427 58.268 315.326 58.5429 315.326H61.5078C61.7049 315.326 61.8035 315.396 61.8035 315.528C61.8035 315.575 60.7011 318.032 58.4988 322.89C57.5532 325.003 56.1149 326.859 54.3044 328.301C52.2681 329.915 50.1489 330.719 47.944 330.719V330.719ZM81.8236 330.719H67.5076C66.1562 330.719 65.0771 330.394 64.2704 329.736C63.404 329.046 62.9708 328.049 62.9708 326.747C62.9708 325.733 63.2432 324.631 63.7905 323.45L67.3234 315.617C67.4142 315.425 67.5958 315.324 67.8708 315.324H76.5553C76.7551 315.324 76.8536 315.394 76.8536 315.526C76.8533 315.558 76.8452 315.589 76.8303 315.617L72.7967 324.548C72.296 325.658 72.0444 326.446 72.0444 326.929C72.0444 327.689 72.6151 328.073 73.7539 328.073H83.0324C83.2296 328.073 83.3281 328.138 83.3281 328.275C83.3278 328.305 83.3197 328.335 83.3048 328.361L82.371 330.428C82.2828 330.623 82.0986 330.719 81.8236 330.719V330.719ZM104.264 317.972L98.6324 330.431C98.5417 330.623 98.3653 330.719 98.1085 330.719H89.8545C89.6729 330.719 89.5821 330.654 89.5821 330.521C89.5821 330.49 91.468 326.306 95.237 317.972H88.8766C88.6639 317.972 88.5549 317.907 88.5549 317.77C88.5549 317.754 88.8766 317.041 89.5147 315.617C89.6055 315.425 89.7871 315.324 90.062 315.324H112.059C112.258 315.324 112.354 315.394 112.354 315.526C112.354 315.557 112.035 316.281 111.397 317.705C111.307 317.886 111.125 317.975 110.85 317.975H104.264V317.972V317.972ZM119.475 330.719H111.244C111.047 330.719 110.949 330.654 110.949 330.521C110.949 330.49 113.19 325.52 117.675 315.617C117.765 315.425 117.939 315.324 118.199 315.324H126.45C126.632 315.324 126.722 315.394 126.722 315.526C126.722 315.557 124.481 320.527 119.996 330.431C119.908 330.623 119.734 330.719 119.475 330.719V330.719ZM155.204 330.719H147.02C146.807 330.719 146.701 330.654 146.701 330.521C146.701 330.49 147.614 328.454 149.438 324.415L139.568 330.607C139.43 330.682 139.096 330.719 138.564 330.719C137.91 330.719 137.544 330.682 137.469 330.607L132.362 324.415L129.648 330.428C129.558 330.62 129.376 330.716 129.104 330.716H125.957C125.742 330.716 125.638 330.651 125.638 330.519C125.638 330.488 127.879 325.518 132.362 315.614C132.452 315.422 132.634 315.321 132.909 315.321H136.26C136.398 315.321 136.496 315.362 136.556 315.438L142.782 325.357L158.804 315.438C158.911 315.361 159.039 315.32 159.17 315.321H162.156C162.368 315.321 162.475 315.391 162.475 315.523C162.475 315.554 160.234 320.524 155.749 330.428C155.658 330.623 155.476 330.719 155.204 330.719V330.719ZM194.305 330.719H184.09C183.953 330.719 183.862 330.682 183.818 330.607L177.317 320.727L166.065 328.073H178.147C178.347 328.073 178.443 328.138 178.443 328.275C178.443 328.306 178.124 329.02 177.486 330.428C177.411 330.62 177.237 330.716 176.962 330.716H159.453C159.209 330.716 159.087 330.662 159.087 330.54C159.087 330.449 159.17 330.353 159.339 330.247L182.363 315.438C182.476 315.359 182.611 315.318 182.749 315.321H185.167C185.304 315.321 185.4 315.362 185.462 315.438C191.724 325.357 194.855 330.337 194.855 330.384C194.853 330.607 194.668 330.719 194.305 330.719V330.719ZM220.665 317.972L215.034 330.431C214.94 330.623 214.766 330.719 214.507 330.719H206.256C206.074 330.719 205.983 330.654 205.983 330.521C205.983 330.49 207.869 326.306 211.638 317.972H205.278C205.065 317.972 204.959 317.907 204.959 317.77C204.959 317.754 205.278 317.041 205.916 315.617C206.007 315.425 206.188 315.324 206.463 315.324H228.462C228.66 315.324 228.758 315.394 228.758 315.526C228.758 315.557 228.439 316.281 227.801 317.705C227.71 317.886 227.529 317.975 227.254 317.975H220.665V317.972V317.972ZM250.488 323.671H239.5C239.318 323.671 239.227 323.606 239.227 323.474C239.227 323.443 239.546 322.714 240.187 321.295C240.278 321.098 240.452 321.002 240.711 321.002H251.696C251.894 321.002 251.995 321.077 251.995 321.23C251.995 321.246 251.665 321.959 251.014 323.383C250.936 323.575 250.76 323.671 250.488 323.671V323.671ZM247.274 330.719H231.84C230.457 330.719 229.362 330.384 228.556 329.71C227.705 328.976 227.28 327.946 227.28 326.615C227.28 325.489 227.578 324.293 228.169 323.022C229.158 320.869 230.569 319.08 232.408 317.658C234.413 316.102 236.55 315.324 238.812 315.324H254.246C254.443 315.324 254.545 315.394 254.545 315.526C254.543 315.558 254.534 315.589 254.519 315.617L253.587 317.705C253.512 317.886 253.328 317.975 253.04 317.975H242.664C241.585 317.975 240.706 318.33 240.021 319.028C239.549 319.495 239.048 320.314 238.517 321.5L237.422 323.946C236.828 325.232 236.532 326.174 236.532 326.773C236.532 327.64 237.056 328.075 238.104 328.075H248.477C248.69 328.075 248.796 328.14 248.796 328.278C248.781 328.304 248.773 328.333 248.773 328.363L247.839 330.431C247.751 330.623 247.562 330.719 247.274 330.719V330.719ZM293.695 323.671H282.707C282.526 323.671 282.435 323.606 282.435 323.474C282.435 323.443 282.754 322.714 283.392 321.295C283.483 321.098 283.662 321.002 283.913 321.002H294.901C295.083 321.002 295.174 321.077 295.174 321.23C295.174 321.246 294.855 321.959 294.217 323.383C294.141 323.575 293.967 323.671 293.695 323.671ZM277.143 330.719H268.459C268.261 330.719 268.16 330.654 268.16 330.521C268.16 330.475 269.346 327.842 271.717 322.618C272.636 320.59 274.066 318.836 275.867 317.526C277.828 316.058 279.88 315.321 282.022 315.321H297.454C297.651 315.321 297.752 315.391 297.752 315.523C297.751 315.555 297.742 315.586 297.726 315.614L296.795 317.702C296.704 317.884 296.523 317.972 296.248 317.972H285.877C284.793 317.972 283.911 318.327 283.229 319.025C282.756 319.492 282.256 320.312 281.729 321.497L277.69 330.428C277.6 330.623 277.415 330.719 277.143 330.719V330.719ZM301.882 330.719H293.654C293.456 330.719 293.361 330.654 293.361 330.521C293.361 330.49 295.599 325.52 300.084 315.617C300.175 315.425 300.349 315.324 300.605 315.324H308.859C309.041 315.324 309.132 315.394 309.132 315.526C309.132 315.557 306.893 320.527 302.408 330.431C302.317 330.623 302.141 330.719 301.882 330.719V330.719ZM332.208 330.719H315.975C314.592 330.719 313.497 330.384 312.691 329.71C311.84 328.976 311.414 327.946 311.414 326.615C311.414 325.489 311.713 324.293 312.307 323.022C313.311 320.869 314.724 319.08 316.548 317.658C318.553 316.102 320.688 315.324 322.952 315.324H337.543C337.756 315.324 337.862 315.394 337.862 315.526C337.862 315.557 337.852 315.586 337.842 315.617L336.905 317.705C336.814 317.886 336.633 317.975 336.358 317.975H326.807C325.728 317.975 324.846 318.33 324.161 319.028C323.689 319.495 323.188 320.314 322.657 321.5L321.562 323.946C320.968 325.232 320.67 326.174 320.67 326.773C320.67 327.64 321.196 328.075 322.244 328.075H324.797L328.055 320.846C328.145 320.654 328.327 320.558 328.602 320.558H336.783C337.001 320.558 337.102 320.623 337.102 320.76C337.102 320.786 335.652 324.013 332.75 330.433C332.664 330.623 332.483 330.719 332.208 330.719V330.719ZM360.713 330.719H352.479C352.298 330.719 352.207 330.654 352.207 330.521C352.207 330.49 353.234 328.205 355.289 323.671H348.332L345.276 330.428C345.201 330.62 345.027 330.716 344.754 330.716H336.526C336.329 330.716 336.228 330.651 336.228 330.519C336.228 330.488 338.472 325.518 342.957 315.614C343.048 315.422 343.221 315.321 343.478 315.321H351.732C351.914 315.321 352.005 315.391 352.005 315.523C352.005 315.554 351.185 317.383 349.543 320.999H356.474L358.91 315.614C359 315.422 359.182 315.321 359.457 315.321H367.69C367.872 315.321 367.963 315.391 367.963 315.523C367.963 315.554 365.729 320.524 361.26 330.428C361.166 330.623 360.985 330.719 360.713 330.719V330.719ZM384.494 317.972L378.865 330.431C378.774 330.623 378.595 330.719 378.338 330.719H370.084C369.903 330.719 369.812 330.654 369.812 330.521C369.812 330.49 371.698 326.306 375.467 317.972H369.109C368.896 317.972 368.79 317.907 368.79 317.77C368.79 317.754 369.109 317.041 369.747 315.617C369.838 315.425 370.02 315.324 370.295 315.324H392.291C392.488 315.324 392.584 315.394 392.584 315.526C392.584 315.557 392.265 316.281 391.627 317.705C391.542 317.886 391.355 317.975 391.08 317.975H384.494V317.972V317.972ZM399.707 330.719H391.474C391.277 330.719 391.181 330.654 391.181 330.521C391.181 330.49 393.42 325.52 397.905 315.617C397.995 315.425 398.169 315.324 398.426 315.324H406.68C406.862 315.324 406.952 315.394 406.952 315.526C406.952 315.557 404.714 320.527 400.229 330.431C400.138 330.623 399.959 330.719 399.707 330.719V330.719ZM433.265 330.719H429.613C429.263 330.719 428.812 330.607 428.246 330.384L412.623 324.208L409.832 330.428C409.741 330.62 409.559 330.716 409.289 330.716H406.138C405.93 330.716 405.819 330.651 405.819 330.519C405.819 330.488 405.829 330.459 405.845 330.428L412.547 315.614C412.638 315.422 412.82 315.321 413.095 315.321H416.607C416.895 315.321 417.281 315.422 417.766 315.614L433.691 321.946L436.554 315.614C436.63 315.422 436.814 315.321 437.102 315.321H440.248C440.445 315.321 440.547 315.391 440.547 315.523C440.545 315.555 440.536 315.586 440.521 315.614L433.818 330.428C433.737 330.623 433.556 330.719 433.265 330.719V330.719ZM462.52 330.719H446.287C444.904 330.719 443.815 330.384 443.008 329.71C442.157 328.976 441.732 327.946 441.732 326.615C441.732 325.489 442.025 324.293 442.619 323.022C443.623 320.869 445.037 319.08 446.86 317.658C448.865 316.102 451.005 315.324 453.265 315.324H467.856C468.068 315.324 468.175 315.394 468.175 315.526C468.175 315.557 468.168 315.589 468.154 315.617L467.218 317.705C467.127 317.886 466.945 317.975 466.67 317.975H457.119C456.04 317.975 455.158 318.33 454.474 319.028C454.001 319.495 453.501 320.314 452.969 321.5L451.874 323.946C451.28 325.232 450.982 326.174 450.982 326.773C450.982 327.64 451.509 328.075 452.557 328.075H455.109L458.367 320.846C458.458 320.654 458.639 320.558 458.914 320.558H467.101C467.314 320.558 467.42 320.623 467.42 320.76C467.42 320.786 465.965 324.013 463.062 330.433C462.974 330.623 462.792 330.719 462.52 330.719V330.719Z" fill="#DB812E"/>
<path id="Vector_26" d="M134.336 357.545H126.105C125.923 357.545 125.833 357.48 125.833 357.348C125.833 357.317 126.86 355.032 128.912 350.503H121.957L118.902 357.257C118.826 357.449 118.653 357.545 118.378 357.545H110.147C109.95 357.545 109.851 357.48 109.851 357.348C109.851 357.317 112.093 352.347 116.575 342.443C116.668 342.251 116.842 342.155 117.101 342.155H125.353C125.534 342.155 125.625 342.22 125.625 342.353C125.625 342.384 124.805 344.212 123.163 347.828H130.095L132.533 342.443C132.624 342.251 132.805 342.155 133.08 342.155H141.308C141.492 342.155 141.583 342.22 141.583 342.353C141.583 342.384 139.35 347.354 134.88 357.257C134.79 357.449 134.608 357.545 134.336 357.545V357.545ZM173.862 357.545H163.647C163.51 357.545 163.419 357.509 163.375 357.434L156.875 347.553L145.622 354.899H157.702C157.902 354.899 158 354.964 158 355.102C158 355.133 157.681 355.846 157.043 357.255C156.968 357.447 156.791 357.543 156.519 357.543H139.01C138.766 357.543 138.644 357.488 138.644 357.366C138.644 357.276 138.727 357.18 138.896 357.073L161.92 342.264C162.034 342.187 162.169 342.148 162.306 342.153H164.724C164.861 342.153 164.957 342.189 165.02 342.264C171.281 352.184 174.412 357.164 174.412 357.211C174.41 357.434 174.228 357.545 173.862 357.545V357.545ZM207.76 357.545H199.576C199.363 357.545 199.257 357.48 199.257 357.348C199.257 357.317 200.17 355.281 201.994 351.242L192.121 357.434C191.984 357.509 191.649 357.545 191.117 357.545C190.464 357.545 190.098 357.509 190.023 357.434L184.915 351.242L182.204 357.255C182.111 357.447 181.932 357.543 181.657 357.543H178.511C178.298 357.543 178.192 357.478 178.192 357.346C178.192 357.314 180.433 352.344 184.915 342.441C185.006 342.249 185.187 342.153 185.462 342.153H188.814C188.951 342.153 189.05 342.189 189.11 342.264L195.338 352.184L211.36 342.264C211.467 342.189 211.594 342.15 211.724 342.153H214.712C214.925 342.153 215.031 342.218 215.031 342.35C215.031 342.381 212.787 347.351 208.305 357.255C208.217 357.449 208.032 357.545 207.76 357.545V357.545ZM235.295 350.503H226.608C226.411 350.503 226.312 350.433 226.312 350.3C226.312 350.254 226.32 350.225 226.335 350.21L227.269 348.121C227.344 347.93 227.529 347.828 227.817 347.828H230.758C231.352 347.828 231.92 347.701 232.467 347.45C233.09 347.167 233.508 346.786 233.72 346.306C233.787 346.15 233.826 345.984 233.834 345.815C233.834 345.141 233.264 344.801 232.125 344.801H227.451L221.819 357.26C221.729 357.452 221.547 357.548 221.272 357.548H213.088C212.875 357.548 212.769 357.483 212.769 357.351C212.769 357.32 215.01 352.35 219.495 342.446C219.586 342.254 219.767 342.158 220.042 342.158H239.624C240.628 342.158 241.44 342.334 242.063 342.695C242.432 342.89 242.739 343.185 242.948 343.546C243.158 343.906 243.262 344.319 243.248 344.736C243.248 345.885 242.701 346.996 241.606 348.059C239.941 349.688 237.834 350.503 235.295 350.503V350.503ZM250.226 357.545H241.995C241.798 357.545 241.699 357.48 241.699 357.348C241.699 357.317 243.941 352.347 248.425 342.443C248.516 342.251 248.693 342.155 248.949 342.155H257.201C257.382 342.155 257.473 342.22 257.473 342.353C257.473 342.384 255.235 347.354 250.75 357.257C250.659 357.449 250.485 357.545 250.226 357.545ZM273.296 357.545H261.577C260.194 357.545 259.1 357.211 258.293 356.536C257.426 355.807 256.991 354.772 256.991 353.442C256.991 352.363 257.289 351.167 257.883 349.849C258.823 347.733 260.282 345.888 262.124 344.485C264.16 342.928 266.293 342.155 268.529 342.155H280.248C281.646 342.155 282.746 342.485 283.55 343.144C284.417 343.844 284.852 344.861 284.852 346.194C284.852 347.289 284.549 348.505 283.939 349.852C282.998 351.958 281.579 353.743 279.672 355.193C277.623 356.759 275.501 357.545 273.296 357.545V357.545ZM275.688 345.968C275.688 345.188 275.125 344.799 274.002 344.799H271.997C270.964 344.799 270.111 345.17 269.444 345.898C269.019 346.365 268.542 347.175 268.01 348.326L266.915 350.772C266.308 352.106 266.002 353.068 266.002 353.665C266.002 354.49 266.479 354.902 267.437 354.902H269.442C270.505 354.902 271.434 354.446 272.222 353.535C272.739 352.933 273.281 352.015 273.844 350.775L274.959 348.329C275.447 347.229 275.688 346.446 275.688 345.968V345.968ZM311.822 357.545H308.169C307.819 357.545 307.363 357.434 306.802 357.211L291.174 351.034L288.388 357.255C288.297 357.447 288.116 357.543 287.841 357.543H284.694C284.481 357.543 284.375 357.478 284.375 357.346C284.375 357.314 284.385 357.286 284.401 357.255L291.099 342.441C291.189 342.249 291.371 342.153 291.646 342.153H295.158C295.446 342.153 295.838 342.249 296.323 342.441L312.242 348.773L315.108 342.441C315.183 342.249 315.368 342.153 315.656 342.153H318.802C318.999 342.153 319.095 342.218 319.095 342.35C319.096 342.381 319.089 342.413 319.074 342.441L312.372 357.255C312.294 357.449 312.11 357.545 311.822 357.545V357.545ZM330.446 357.545H317.316C317.103 357.545 316.997 357.48 316.997 357.348C317.011 357.32 317.018 357.289 317.017 357.257L317.954 355.19C318.045 354.998 318.226 354.902 318.501 354.902H328.623L322.924 349.784C321.829 348.811 321.282 347.828 321.282 346.84C321.282 345.704 321.935 344.713 323.243 343.857C324.333 343.17 325.537 342.684 326.799 342.423C327.666 342.241 328.532 342.153 329.398 342.153H343.325C343.522 342.153 343.618 342.218 343.618 342.35C343.619 342.381 343.612 342.413 343.598 342.441L342.661 344.529C342.57 344.71 342.389 344.799 342.114 344.799H331.925L337.554 349.987C338.952 351.273 339.652 352.459 339.652 353.553C339.652 355.063 338.436 356.163 336.005 356.85C334.366 357.317 332.508 357.545 330.446 357.545V357.545ZM366.689 357.545H358.456C358.274 357.545 358.183 357.48 358.183 357.348C358.183 357.317 359.211 355.032 361.265 350.503H354.308L351.252 357.257C351.177 357.449 351.003 357.545 350.731 357.545H342.503C342.306 357.545 342.205 357.48 342.205 357.348C342.205 357.317 344.448 352.347 348.928 342.443C349.019 342.251 349.198 342.155 349.455 342.155H357.709C357.89 342.155 357.981 342.22 357.981 342.353C357.981 342.384 357.161 344.212 355.519 347.828H362.45L364.886 342.443C364.977 342.251 365.159 342.155 365.433 342.155H373.667C373.848 342.155 373.939 342.22 373.939 342.353C373.939 342.384 371.706 347.354 367.236 357.257C367.146 357.449 366.964 357.545 366.689 357.545V357.545ZM379.887 357.545H371.654C371.457 357.545 371.361 357.48 371.361 357.348C371.361 357.317 373.599 352.347 378.084 342.443C378.175 342.251 378.354 342.155 378.611 342.155H386.865C387.046 342.155 387.134 342.22 387.134 342.353C387.134 342.384 384.896 347.354 380.411 357.257C380.318 357.449 380.146 357.545 379.887 357.545Z" stroke="black" stroke-width="35.3815" stroke-miterlimit="2.613" stroke-linejoin="round"/>
<path id="Vector_27" fill-rule="evenodd" clip-rule="evenodd" d="M134.336 357.545H126.105C125.923 357.545 125.833 357.48 125.833 357.348C125.833 357.317 126.86 355.032 128.912 350.503H121.957L118.902 357.257C118.826 357.449 118.653 357.545 118.378 357.545H110.147C109.95 357.545 109.851 357.48 109.851 357.348C109.851 357.317 112.093 352.347 116.575 342.443C116.668 342.251 116.842 342.155 117.101 342.155H125.353C125.534 342.155 125.625 342.22 125.625 342.353C125.625 342.384 124.805 344.212 123.163 347.828H130.095L132.533 342.443C132.624 342.251 132.805 342.155 133.08 342.155H141.308C141.492 342.155 141.583 342.22 141.583 342.353C141.583 342.384 139.347 347.354 134.88 357.257C134.79 357.449 134.608 357.545 134.336 357.545V357.545ZM173.862 357.545H163.647C163.51 357.545 163.419 357.509 163.375 357.434L156.875 347.553L145.622 354.899H157.702C157.902 354.899 158 354.964 158 355.102C158 355.133 157.681 355.846 157.043 357.255C156.968 357.447 156.791 357.543 156.519 357.543H139.01C138.766 357.543 138.644 357.488 138.644 357.366C138.644 357.276 138.727 357.18 138.896 357.073L161.92 342.264C162.034 342.187 162.169 342.148 162.306 342.153H164.724C164.861 342.153 164.96 342.189 165.02 342.264C171.281 352.184 174.412 357.164 174.412 357.211C174.41 357.434 174.228 357.545 173.862 357.545V357.545ZM207.76 357.545H199.576C199.363 357.545 199.257 357.48 199.257 357.348C199.257 357.317 200.17 355.281 201.994 351.242L192.121 357.434C191.984 357.509 191.649 357.545 191.117 357.545C190.464 357.545 190.098 357.509 190.023 357.434L184.915 351.242L182.202 357.255C182.111 357.447 181.929 357.543 181.657 357.543H178.511C178.298 357.543 178.192 357.478 178.192 357.346C178.192 357.314 180.433 352.344 184.918 342.441C185.009 342.249 185.19 342.153 185.465 342.153H188.816C188.954 342.153 189.052 342.189 189.112 342.264L195.34 352.184L211.363 342.264C211.469 342.189 211.596 342.15 211.726 342.153H214.714C214.927 342.153 215.034 342.218 215.034 342.35C215.034 342.381 212.79 347.351 208.307 357.255C208.217 357.449 208.032 357.545 207.76 357.545V357.545ZM235.295 350.503H226.608C226.411 350.503 226.312 350.433 226.312 350.3C226.312 350.254 226.32 350.225 226.335 350.21L227.269 348.121C227.344 347.93 227.529 347.828 227.817 347.828H230.758C231.352 347.828 231.92 347.701 232.467 347.45C233.09 347.167 233.508 346.786 233.72 346.306C233.787 346.15 233.826 345.984 233.834 345.815C233.834 345.141 233.264 344.801 232.125 344.801H227.451L221.819 357.26C221.729 357.452 221.547 357.548 221.272 357.548H213.088C212.875 357.548 212.769 357.483 212.769 357.351C212.769 357.32 215.01 352.35 219.495 342.446C219.586 342.254 219.767 342.158 220.042 342.158H239.624C240.628 342.158 241.44 342.334 242.063 342.695C242.432 342.89 242.739 343.185 242.948 343.546C243.158 343.906 243.262 344.319 243.248 344.736C243.248 345.885 242.701 346.996 241.606 348.059C239.941 349.688 237.834 350.503 235.295 350.503V350.503ZM250.226 357.545H241.995C241.798 357.545 241.699 357.48 241.699 357.348C241.699 357.317 243.941 352.347 248.425 342.443C248.516 342.251 248.693 342.155 248.949 342.155H257.201C257.382 342.155 257.473 342.22 257.473 342.353C257.473 342.384 255.235 347.354 250.75 357.257C250.659 357.449 250.485 357.545 250.226 357.545ZM273.296 357.545H261.577C260.194 357.545 259.1 357.211 258.293 356.536C257.426 355.807 256.991 354.772 256.991 353.442C256.991 352.363 257.289 351.167 257.883 349.849C258.823 347.733 260.282 345.888 262.124 344.485C264.16 342.928 266.293 342.155 268.529 342.155H280.248C281.646 342.155 282.746 342.485 283.55 343.144C284.417 343.844 284.852 344.861 284.852 346.194C284.852 347.289 284.549 348.505 283.939 349.852C282.998 351.958 281.579 353.743 279.672 355.193C277.623 356.759 275.501 357.545 273.296 357.545V357.545ZM275.688 345.968C275.688 345.188 275.125 344.799 274.002 344.799H271.997C270.964 344.799 270.111 345.17 269.444 345.898C269.019 346.365 268.542 347.175 268.01 348.326L266.915 350.772C266.308 352.106 266.002 353.068 266.002 353.665C266.002 354.49 266.479 354.902 267.437 354.902H269.442C270.505 354.902 271.434 354.446 272.222 353.535C272.739 352.933 273.281 352.015 273.844 350.775L274.959 348.329C275.447 347.229 275.688 346.446 275.688 345.968V345.968ZM311.822 357.545H308.169C307.819 357.545 307.363 357.434 306.802 357.211L291.174 351.034L288.388 357.255C288.297 357.447 288.116 357.543 287.841 357.543H284.694C284.481 357.543 284.375 357.478 284.375 357.346C284.375 357.314 284.385 357.286 284.401 357.255L291.099 342.441C291.189 342.249 291.371 342.153 291.646 342.153H295.158C295.446 342.153 295.838 342.249 296.323 342.441L312.242 348.773L315.108 342.441C315.183 342.249 315.368 342.153 315.656 342.153H318.802C318.999 342.153 319.095 342.218 319.095 342.35C319.096 342.381 319.089 342.413 319.074 342.441L312.372 357.255C312.294 357.449 312.11 357.545 311.822 357.545V357.545ZM330.446 357.545H317.316C317.103 357.545 316.997 357.48 316.997 357.348C317.011 357.32 317.018 357.289 317.017 357.257L317.954 355.19C318.045 354.998 318.226 354.902 318.501 354.902H328.623L322.924 349.784C321.829 348.811 321.282 347.828 321.282 346.84C321.282 345.704 321.935 344.713 323.243 343.857C324.333 343.17 325.537 342.684 326.799 342.423C327.666 342.241 328.532 342.153 329.398 342.153H343.325C343.522 342.153 343.618 342.218 343.618 342.35C343.619 342.381 343.612 342.413 343.598 342.441L342.661 344.529C342.57 344.71 342.389 344.799 342.114 344.799H331.925L337.554 349.987C338.952 351.273 339.652 352.459 339.652 353.553C339.652 355.063 338.436 356.163 336.005 356.85C334.366 357.317 332.508 357.545 330.446 357.545V357.545ZM366.689 357.545H358.456C358.274 357.545 358.183 357.48 358.183 357.348C358.183 357.317 359.211 355.032 361.265 350.503H354.308L351.252 357.257C351.177 357.449 351.003 357.545 350.731 357.545H342.503C342.306 357.545 342.205 357.48 342.205 357.348C342.205 357.317 344.448 352.347 348.928 342.443C349.019 342.251 349.198 342.155 349.455 342.155H357.709C357.89 342.155 357.981 342.22 357.981 342.353C357.981 342.384 357.161 344.212 355.519 347.828H362.45L364.886 342.443C364.977 342.251 365.159 342.155 365.433 342.155H373.667C373.848 342.155 373.939 342.22 373.939 342.353C373.939 342.384 371.706 347.354 367.236 357.257C367.146 357.449 366.964 357.545 366.689 357.545V357.545ZM379.887 357.545H371.654C371.457 357.545 371.361 357.48 371.361 357.348C371.361 357.317 373.599 352.347 378.084 342.443C378.175 342.251 378.354 342.155 378.611 342.155H386.86C387.046 342.155 387.132 342.22 387.132 342.353C387.132 342.384 384.893 347.354 380.408 357.257C380.318 357.449 380.146 357.545 379.887 357.545Z" fill="#DB812E"/>
<path id="Vector_28" d="M101.138 365.683H75.829C73.5619 365.683 71.7669 365.13 70.4466 364.025C69.051 362.824 68.3533 361.133 68.3533 358.949C68.3533 357.11 68.828 355.143 69.7748 353.06C71.3581 349.604 73.7571 346.584 76.7655 344.259C80.0546 341.712 83.5435 340.433 87.2321 340.433H112.578C112.902 340.433 113.063 340.545 113.063 340.762C113.063 340.814 113.052 340.864 113.026 340.91L111.493 344.334C111.345 344.627 111.045 344.775 110.596 344.775H93.5509C91.7819 344.775 90.35 345.354 89.2528 346.508C88.4798 347.268 87.6575 348.614 86.7859 350.557L84.9546 354.57C84.0078 356.676 83.5331 358.222 83.5331 359.205C83.5331 360.629 84.3813 361.338 86.0752 361.338H103.123C103.447 361.338 103.608 361.449 103.608 361.672C103.606 361.724 103.594 361.774 103.571 361.82L102.038 365.205C101.883 365.524 101.587 365.683 101.138 365.683V365.683Z" stroke="black" stroke-width="35.3815" stroke-miterlimit="2.613" stroke-linejoin="round"/>
<path id="Vector_29" fill-rule="evenodd" clip-rule="evenodd" d="M101.138 365.683H75.829C73.5619 365.683 71.7669 365.13 70.4466 364.025C69.051 362.824 68.3533 361.133 68.3533 358.949C68.3533 357.11 68.828 355.143 69.7748 353.06C71.3581 349.604 73.7571 346.584 76.7655 344.259C80.0546 341.712 83.5435 340.433 87.2321 340.433H112.578C112.902 340.433 113.063 340.545 113.063 340.762C113.063 340.814 113.052 340.864 113.026 340.91L111.493 344.334C111.345 344.627 111.045 344.775 110.596 344.775H93.5509C91.7819 344.775 90.35 345.354 89.2528 346.508C88.4798 347.268 87.6575 348.614 86.7859 350.557L84.9546 354.57C84.0078 356.676 83.5331 358.222 83.5331 359.205C83.5331 360.629 84.3813 361.338 86.0752 361.338H103.123C103.447 361.338 103.608 361.449 103.608 361.672C103.606 361.724 103.594 361.774 103.571 361.82L102.038 365.205C101.883 365.524 101.587 365.683 101.138 365.683V365.683Z" fill="#DB812E"/>
<path id="Vector_30" d="M423.058 354.126H408.817C408.493 354.126 408.33 354.02 408.33 353.797C408.33 353.722 408.34 353.675 408.366 353.649L409.902 350.225C410.024 349.906 410.322 349.748 410.799 349.748H415.621C416.594 349.748 417.525 349.54 418.423 349.12C419.447 348.653 420.13 348.031 420.48 347.245C420.592 346.989 420.655 346.714 420.666 346.435C420.666 345.33 419.73 344.778 417.86 344.778H410.2L400.963 365.205C400.815 365.524 400.517 365.683 400.065 365.683H386.644C386.294 365.683 386.123 365.571 386.123 365.353C386.123 365.301 389.796 357.156 397.152 340.913C397.3 340.594 397.598 340.436 398.05 340.436H430.16C431.808 340.436 433.138 340.729 434.163 341.318C435.455 342.078 436.103 343.198 436.103 344.666C436.103 346.557 435.206 348.376 433.413 350.114C430.671 352.788 427.216 354.126 423.058 354.126V354.126Z" stroke="black" stroke-width="35.3815" stroke-miterlimit="2.613" stroke-linejoin="round"/>
<path id="Vector_31" fill-rule="evenodd" clip-rule="evenodd" d="M423.058 354.126H408.817C408.493 354.126 408.33 354.02 408.33 353.797C408.33 353.722 408.34 353.675 408.366 353.649L409.902 350.225C410.024 349.906 410.322 349.748 410.799 349.748H415.621C416.594 349.748 417.525 349.54 418.423 349.12C419.447 348.653 420.13 348.031 420.48 347.245C420.592 346.989 420.655 346.714 420.666 346.435C420.666 345.33 419.73 344.778 417.86 344.778H410.2L400.963 365.205C400.815 365.524 400.517 365.683 400.065 365.683H386.644C386.294 365.683 386.123 365.571 386.123 365.353C386.123 365.301 389.796 357.156 397.152 340.913C397.3 340.594 397.598 340.436 398.05 340.436H430.16C431.808 340.436 433.138 340.729 434.163 341.318C435.455 342.078 436.103 343.198 436.103 344.666C436.103 346.557 435.206 348.376 433.413 350.114C430.671 352.788 427.216 354.126 423.058 354.126V354.126Z" fill="#DB812E"/>
<path id="Vector_32" d="M57.1214 129.817H115.335L84.7859 232.53C82.6407 239.736 87.1905 245.678 94.6844 245.678C102.181 245.678 109.898 239.733 112.041 232.53L142.59 129.817H194.209L158.937 261.113C155.824 272.7 143.453 282.178 131.443 282.178H42.1335C27.8616 282.178 19.2134 270.91 22.9123 257.146L57.1214 129.817V129.817Z" stroke="black" stroke-width="35.4075" stroke-miterlimit="2.613" stroke-linejoin="round"/>
<path id="Vector_33" fill-rule="evenodd" clip-rule="evenodd" d="M57.1214 129.817H115.335L84.7859 232.527C82.6407 239.733 87.1905 245.676 94.6844 245.676C102.181 245.676 109.898 239.731 112.041 232.527L142.59 129.817H194.209L158.937 261.113C155.824 272.7 143.453 282.178 131.443 282.178H42.1335C27.8616 282.178 19.2134 270.91 22.9123 257.146L57.1214 129.817V129.817Z" fill="#DB812E"/>
<path id="Vector_34" d="M231.479 282.178H175.279L202.759 185.922H318.737L307.879 221.485H248.078L231.479 282.178V282.178Z" stroke="black" stroke-width="35.3815" stroke-miterlimit="2.613" stroke-linejoin="round"/>
<path id="Vector_35" fill-rule="evenodd" clip-rule="evenodd" d="M231.479 282.178H175.279L202.759 185.922H318.737L307.879 221.485H248.078L231.479 282.178V282.178Z" fill="#DB812E"/>
<path id="Vector_36" d="M375.267 128.276H451.299C462.414 128.276 481.295 137.186 477.43 151.357L475.91 156.934H408.068C404.581 156.934 400.96 159.728 400.013 163.144L378.932 239.494C377.991 242.908 380.071 245.704 383.557 245.704H451.703L446.764 263.821C443.901 274.318 432.625 282.951 421.51 282.951H341.25C327.105 282.951 318.415 271.997 321.943 258.612L351.54 146.252C354.139 136.364 364.821 128.276 375.267 128.276V128.276Z" stroke="black" stroke-width="35.3815" stroke-miterlimit="2.613" stroke-linejoin="round"/>
<path id="Vector_37" fill-rule="evenodd" clip-rule="evenodd" d="M375.267 128.276H451.299C462.414 128.276 481.295 137.186 477.43 151.357L475.91 156.934H408.068C404.581 156.934 400.96 159.728 400.016 163.144L378.93 239.494C377.988 242.908 380.069 245.704 383.555 245.704H451.701L446.762 263.821C443.898 274.318 432.622 282.951 421.507 282.951H341.247C327.103 282.951 318.413 271.997 321.941 258.612L351.538 146.252C354.139 136.364 364.821 128.276 375.267 128.276V128.276Z" fill="#DB812E"/>
<path id="Vector_38" d="M324.734 165.167H265.079L265.047 165.271H208.849L219.661 127.913H335.494L324.734 165.167Z" stroke="black" stroke-width="35.3815" stroke-miterlimit="2.613" stroke-linejoin="round"/>
<path id="Vector_39" fill-rule="evenodd" clip-rule="evenodd" d="M324.734 165.167H265.079L265.047 165.271H208.849L219.661 127.913H335.494L324.734 165.167Z" fill="#DB812E"/>
</g>
<defs>
<clipPath id="clip0_18_3">
<rect width="500" height="500" fill="white"/>
</clipPath>
</defs>
</svg>
